<svg width="24" height="24" viewBox="0 0 24 24" fill="none" xmlns="http://www.w3.org/2000/svg">
<g clip-path="url(#clip0_1167_3099)">
<path d="M23.25 19.7505H12.75C12.6121 19.7505 12.5 19.6384 12.5 19.5005V19.4979V19.495V19.4918V19.4883V19.4845V19.4803V19.4759V19.4711V19.4661V19.4607V19.4551V19.4491V19.4428V19.4363V19.4294V19.4222V19.4148V19.407V19.399V19.3907V19.382V19.3731V19.3639V19.3544V19.3447V19.3346V19.3243V19.3137V19.3028V19.2916V19.2801V19.2684V19.2564V19.2441V19.2315V19.2187V19.2056V19.1922V19.1786V19.1647V19.1505V19.1361V19.1214V19.1064V19.0912V19.0757V19.06V19.044V19.0277V19.0112V18.9945V18.9775V18.9602V18.9427V18.9249V18.9069V18.8887V18.8702V18.8514V18.8324V18.8132V18.7938V18.774V18.7541V18.7339V18.7135V18.6929V18.672V18.6509V18.6295V18.608V18.5862V18.5641V18.5419V18.5194V18.4967V18.4738V18.4507V18.4273V18.4038V18.38V18.356V18.3317V18.3073V18.2827V18.2578V18.2328V18.2075V18.182V18.1563V18.1304V18.1043V18.0781V18.0516V18.0249V17.998V17.9709V17.9436V17.9161V17.8885V17.8606V17.8326V17.8043V17.7759V17.7473V17.7185V17.6895V17.6603V17.631V17.6014V17.5717V17.5418V17.5118V17.4815V17.4511V17.4205V17.3897V17.3588V17.3277V17.2964V17.265V17.2334V17.2016V17.1697V17.1376V17.1053V17.0729V17.0403V17.0076V16.9747V16.9417V16.9085V16.8751V16.8416V16.808V16.7742V16.7402V16.7061V16.6719V16.6375V16.603V16.5683V16.5335V16.4985V16.4634V16.4282V16.3929V16.3574V16.3217V16.286V16.2501V16.2141V16.1779V16.1417V16.1053V16.0688V16.0321V15.9953V15.9585V15.9215V15.8843V15.8471V15.8097V15.7723V15.7347V15.697V15.6592V15.6213V15.5832V15.5451V15.5069V15.4685V15.4301V15.3915V15.3529V15.3141V15.2753V15.2364V15.1973V15.1582V15.119V15.0796V15.0402V15.0007V14.9611V14.9215V14.8817V14.8419V14.8019V14.7619V14.7218V14.6817V14.6414V14.6011V14.5607V14.5202V14.4796V14.439V14.3983V14.3575V14.3167V14.2758V14.2348V14.1938V14.1527V14.1115V14.0703V14.029V13.9877V13.9463V13.9048V13.8633V13.8217V13.7801V13.7384V13.6967V13.6549V13.6131V13.5712V13.5293V13.4874V13.4454V13.4033V13.3612V13.3191V13.277V13.2348V13.1925V13.1503V13.108V13.0656V13.0233V12.9809V12.9384V12.896V12.8535V12.811V12.7685V12.726V12.6834V12.6408V12.5982V12.5556V12.513V12.4703V12.4276V12.385V12.3423V12.2996V12.2569V12.2142V12.1714V12.1287V12.086V12.0433V12.0005V11.9578V11.9151V11.8723V11.8296V11.7869V11.7442V11.7015V11.6588V11.6161V11.5734V11.5307V11.4881V11.4454V11.4028V11.3602V11.3176V11.2751V11.2325V11.19V11.1475V11.105V11.0626V11.0202V10.9778V10.9354V10.8931V10.8508V10.8085V10.7663V10.7241V10.6819V10.6398V10.5977V10.5557V10.5137V10.4717V10.4298V10.3879V10.3461V10.3043V10.2626V10.2209V10.1793V10.1378V10.0962V10.0548V10.0134V9.97204V9.93075V9.88952V9.84836V9.80726V9.76622V9.72525V9.68434V9.64351V9.60274V9.56204V9.52141V9.48086V9.44037V9.39997V9.35964V9.31939V9.27921V9.23912V9.19911V9.15918V9.11933V9.07957V9.03989V9.0003V8.9608V8.92139V8.88208V8.84285V8.80372V8.76468V8.72574V8.68689V8.64814V8.6095V8.57095V8.53251V8.49416V8.45593V8.4178V8.37977V8.34186V8.30405V8.26636V8.22878V8.19131V8.15395V8.11671V8.07959V8.04258V8.0057V7.96893V7.93229V7.89577V7.85937V7.8231V7.78696V7.75094V7.71505V7.6793V7.64367V7.60818V7.57282V7.5376V7.50251V7.46756V7.43275V7.39809V7.36356V7.32917V7.29493V7.26084V7.22689V7.19308V7.15943V7.12593V7.09258V7.05938V7.02633V6.99344V6.96071V6.92813V6.89571V6.86345V6.83136V6.79942V6.76765V6.73604V6.7046V6.67333V6.64223V6.61129V6.58053V6.54994V6.51952V6.48927V6.45921V6.42932V6.3996V6.37007V6.34072V6.31155V6.28256V6.25376V6.22515V6.19672V6.16848V6.14043V6.11257V6.0849V6.05742V6.03014V6.00305V5.97616V5.94947V5.92298V5.89669V5.8706V5.84471V5.81903V5.79355V5.76828V5.74322V5.71837V5.69373V5.66929V5.64508V5.62107V5.59728V5.57371V5.55035V5.52722V5.5043V5.48161V5.45914V5.43689V5.41486V5.39307V5.3715V5.35016V5.32905V5.30817V5.28752V5.26711V5.24693V5.22699V5.20729V5.18782V5.1686V5.14961V5.13087V5.11237V5.09412V5.07611V5.05835V5.04083V5.02357V5.00656V4.9898V4.9733V4.95704V4.94105V4.92531V4.90983V4.89461V4.87965V4.86495V4.85052V4.83635V4.82244V4.8088V4.79543V4.78233V4.7695V4.75695V4.74466V4.73265V4.72092V4.70946V4.69828V4.68738V4.67676V4.66642V4.65636V4.64659V4.63711V4.62791V4.619V4.61037V4.60204V4.594V4.58625V4.5788V4.57164V4.56478V4.55821V4.55195V4.54598V4.54032V4.53495V4.5299V4.52514V4.5207V4.51656V4.51273V4.50921V4.506V4.5031V4.50052C12.5 4.36266 12.6121 4.25052 12.75 4.25052H23.25C23.3879 4.25052 23.5 4.36266 23.5 4.50052V19.5005C23.5 19.6384 23.3879 19.7505 23.25 19.7505Z" fill="#ECEFF1"/>
<path d="M23.25 19.7505H12.75C12.6121 19.7505 12.5 19.6384 12.5 19.5005V19.4979V19.495V19.4918V19.4883V19.4845V19.4803V19.4759V19.4711V19.4661V19.4607V19.4551V19.4491V19.4428V19.4363V19.4294V19.4222V19.4148V19.407V19.399V19.3907V19.382V19.3731V19.3639V19.3544V19.3447V19.3346V19.3243V19.3137V19.3028V19.2916V19.2801V19.2684V19.2564V19.2441V19.2315V19.2187V19.2056V19.1922V19.1786V19.1647V19.1505V19.1361V19.1214V19.1064V19.0912V19.0757V19.06V19.044V19.0277V19.0112V18.9945V18.9775V18.9602V18.9427V18.9249V18.9069V18.8887V18.8702V18.8514V18.8324V18.8132V18.7938V18.774V18.7541V18.7339V18.7135V18.6929V18.672V18.6509V18.6295V18.608V18.5862V18.5641V18.5419V18.5194V18.4967V18.4738V18.4507V18.4273V18.4038V18.38V18.356V18.3317V18.3073V18.2827V18.2578V18.2328V18.2075V18.182V18.1563V18.1304V18.1043V18.0781V18.0516V18.0249V17.998V17.9709V17.9436V17.9161V17.8885V17.8606V17.8326V17.8043V17.7759V17.7473V17.7185V17.6895V17.6603V17.631V17.6014V17.5717V17.5418V17.5118V17.4815V17.4511V17.4205V17.3897V17.3588V17.3277V17.2964V17.265V17.2334V17.2016V17.1697V17.1376V17.1053V17.0729V17.0403V17.0076V16.9747V16.9417V16.9085V16.8751V16.8416V16.808V16.7742V16.7402V16.7061V16.6719V16.6375V16.603V16.5683V16.5335V16.4985V16.4634V16.4282V16.3929V16.3574V16.3217V16.286V16.2501V16.2141V16.1779V16.1417V16.1053V16.0688V16.0321V15.9953V15.9585V15.9215V15.8843V15.8471V15.8097V15.7723V15.7347V15.697V15.6592V15.6213V15.5832V15.5451V15.5069V15.4685V15.4301V15.3915V15.3529V15.3141V15.2753V15.2364V15.1973V15.1582V15.119V15.0796V15.0402V15.0007V14.9611V14.9215V14.8817V14.8419V14.8019V14.7619V14.7218V14.6817V14.6414V14.6011V14.5607V14.5202V14.4796V14.439V14.3983V14.3575V14.3167V14.2758V14.2348V14.1938V14.1527V14.1115V14.0703V14.029V13.9877V13.9463V13.9048V13.8633V13.8217V13.7801V13.7384V13.6967V13.6549V13.6131V13.5712V13.5293V13.4874V13.4454V13.4033V13.3612V13.3191V13.277V13.2348V13.1925V13.1503V13.108V13.0656V13.0233V12.9809V12.9384V12.896V12.8535V12.811V12.7685V12.726V12.6834V12.6408V12.5982V12.5556V12.513V12.4703V12.4276V12.385V12.3423V12.2996V12.2569V12.2142V12.1714V12.1287V12.086V12.0433V12.0005V11.9578V11.9151V11.8723V11.8296V11.7869V11.7442V11.7015V11.6588V11.6161V11.5734V11.5307V11.4881V11.4454V11.4028V11.3602V11.3176V11.2751V11.2325V11.19V11.1475V11.105V11.0626V11.0202V10.9778V10.9354V10.8931V10.8508V10.8085V10.7663V10.7241V10.6819V10.6398V10.5977V10.5557V10.5137V10.4717V10.4298V10.3879V10.3461V10.3043V10.2626V10.2209V10.1793V10.1378V10.0962V10.0548V10.0134V9.97204V9.93075V9.88952V9.84836V9.80726V9.76622V9.72525V9.68434V9.64351V9.60274V9.56204V9.52141V9.48086V9.44037V9.39997V9.35964V9.31939V9.27921V9.23912V9.19911V9.15918V9.11933V9.07957V9.03989V9.0003V8.9608V8.92139V8.88208V8.84285V8.80372V8.76468V8.72574V8.68689V8.64814V8.6095V8.57095V8.53251V8.49416V8.45593V8.4178V8.37977V8.34186V8.30405V8.26636V8.22878V8.19131V8.15395V8.11671V8.07959V8.04258V8.0057V7.96893V7.93229V7.89577V7.85937V7.8231V7.78696V7.75094V7.71505V7.6793V7.64367V7.60818V7.57282V7.5376V7.50251V7.46756V7.43275V7.39809V7.36356V7.32917V7.29493V7.26084V7.22689V7.19308V7.15943V7.12593V7.09258V7.05938V7.02633V6.99344V6.96071V6.92813V6.89571V6.86345V6.83136V6.79942V6.76765V6.73604V6.7046V6.67333V6.64223V6.61129V6.58053V6.54994V6.51952V6.48927V6.45921V6.42932V6.3996V6.37007V6.34072V6.31155V6.28256V6.25376V6.22515V6.19672V6.16848V6.14043V6.11257V6.0849V6.05742V6.03014V6.00305V5.97616V5.94947V5.92298V5.89669V5.8706V5.84471V5.81903V5.79355V5.76828V5.74322V5.71837V5.69373V5.66929V5.64508V5.62107V5.59728V5.57371V5.55035V5.52722V5.5043V5.48161V5.45914V5.43689V5.41486V5.39307V5.3715V5.35016V5.32905V5.30817V5.28752V5.26711V5.24693V5.22699V5.20729V5.18782V5.1686V5.14961V5.13087V5.11237V5.09412V5.07611V5.05835V5.04083V5.02357V5.00656V4.9898V4.9733V4.95704V4.94105V4.92531V4.90983V4.89461V4.87965V4.86495V4.85052V4.83635V4.82244V4.8088V4.79543V4.78233V4.7695V4.75695V4.74466V4.73265V4.72092V4.70946V4.69828V4.68738V4.67676V4.66642V4.65636V4.64659V4.63711V4.62791V4.619V4.61037V4.60204V4.594V4.58625V4.5788V4.57164V4.56478V4.55821V4.55195V4.54598V4.54032V4.53495V4.5299V4.52514V4.5207V4.51656V4.51273V4.50921V4.506V4.5031V4.50052C12.5 4.36266 12.6121 4.25052 12.75 4.25052H23.25C23.3879 4.25052 23.5 4.36266 23.5 4.50052V19.5005C23.5 19.6384 23.3879 19.7505 23.25 19.7505Z" stroke="#3A99D9"/>
<path d="M23.25 19.7505H12.75C12.6121 19.7505 12.5 19.6384 12.5 19.5005V19.4979V19.495V19.4918V19.4883V19.4845V19.4803V19.4759V19.4711V19.4661V19.4607V19.4551V19.4491V19.4428V19.4363V19.4294V19.4222V19.4148V19.407V19.399V19.3907V19.382V19.3731V19.3639V19.3544V19.3447V19.3346V19.3243V19.3137V19.3028V19.2916V19.2801V19.2684V19.2564V19.2441V19.2315V19.2187V19.2056V19.1922V19.1786V19.1647V19.1505V19.1361V19.1214V19.1064V19.0912V19.0757V19.06V19.044V19.0277V19.0112V18.9945V18.9775V18.9602V18.9427V18.9249V18.9069V18.8887V18.8702V18.8514V18.8324V18.8132V18.7938V18.774V18.7541V18.7339V18.7135V18.6929V18.672V18.6509V18.6295V18.608V18.5862V18.5641V18.5419V18.5194V18.4967V18.4738V18.4507V18.4273V18.4038V18.38V18.356V18.3317V18.3073V18.2827V18.2578V18.2328V18.2075V18.182V18.1563V18.1304V18.1043V18.0781V18.0516V18.0249V17.998V17.9709V17.9436V17.9161V17.8885V17.8606V17.8326V17.8043V17.7759V17.7473V17.7185V17.6895V17.6603V17.631V17.6014V17.5717V17.5418V17.5118V17.4815V17.4511V17.4205V17.3897V17.3588V17.3277V17.2964V17.265V17.2334V17.2016V17.1697V17.1376V17.1053V17.0729V17.0403V17.0076V16.9747V16.9417V16.9085V16.8751V16.8416V16.808V16.7742V16.7402V16.7061V16.6719V16.6375V16.603V16.5683V16.5335V16.4985V16.4634V16.4282V16.3929V16.3574V16.3217V16.286V16.2501V16.2141V16.1779V16.1417V16.1053V16.0688V16.0321V15.9953V15.9585V15.9215V15.8843V15.8471V15.8097V15.7723V15.7347V15.697V15.6592V15.6213V15.5832V15.5451V15.5069V15.4685V15.4301V15.3915V15.3529V15.3141V15.2753V15.2364V15.1973V15.1582V15.119V15.0796V15.0402V15.0007V14.9611V14.9215V14.8817V14.8419V14.8019V14.7619V14.7218V14.6817V14.6414V14.6011V14.5607V14.5202V14.4796V14.439V14.3983V14.3575V14.3167V14.2758V14.2348V14.1938V14.1527V14.1115V14.0703V14.029V13.9877V13.9463V13.9048V13.8633V13.8217V13.7801V13.7384V13.6967V13.6549V13.6131V13.5712V13.5293V13.4874V13.4454V13.4033V13.3612V13.3191V13.277V13.2348V13.1925V13.1503V13.108V13.0656V13.0233V12.9809V12.9384V12.896V12.8535V12.811V12.7685V12.726V12.6834V12.6408V12.5982V12.5556V12.513V12.4703V12.4276V12.385V12.3423V12.2996V12.2569V12.2142V12.1714V12.1287V12.086V12.0433V12.0005V11.9578V11.9151V11.8723V11.8296V11.7869V11.7442V11.7015V11.6588V11.6161V11.5734V11.5307V11.4881V11.4454V11.4028V11.3602V11.3176V11.2751V11.2325V11.19V11.1475V11.105V11.0626V11.0202V10.9778V10.9354V10.8931V10.8508V10.8085V10.7663V10.7241V10.6819V10.6398V10.5977V10.5557V10.5137V10.4717V10.4298V10.3879V10.3461V10.3043V10.2626V10.2209V10.1793V10.1378V10.0962V10.0548V10.0134V9.97204V9.93075V9.88952V9.84836V9.80726V9.76622V9.72525V9.68434V9.64351V9.60274V9.56204V9.52141V9.48086V9.44037V9.39997V9.35964V9.31939V9.27921V9.23912V9.19911V9.15918V9.11933V9.07957V9.03989V9.0003V8.9608V8.92139V8.88208V8.84285V8.80372V8.76468V8.72574V8.68689V8.64814V8.6095V8.57095V8.53251V8.49416V8.45593V8.4178V8.37977V8.34186V8.30405V8.26636V8.22878V8.19131V8.15395V8.11671V8.07959V8.04258V8.0057V7.96893V7.93229V7.89577V7.85937V7.8231V7.78696V7.75094V7.71505V7.6793V7.64367V7.60818V7.57282V7.5376V7.50251V7.46756V7.43275V7.39809V7.36356V7.32917V7.29493V7.26084V7.22689V7.19308V7.15943V7.12593V7.09258V7.05938V7.02633V6.99344V6.96071V6.92813V6.89571V6.86345V6.83136V6.79942V6.76765V6.73604V6.7046V6.67333V6.64223V6.61129V6.58053V6.54994V6.51952V6.48927V6.45921V6.42932V6.3996V6.37007V6.34072V6.31155V6.28256V6.25376V6.22515V6.19672V6.16848V6.14043V6.11257V6.0849V6.05742V6.03014V6.00305V5.97616V5.94947V5.92298V5.89669V5.8706V5.84471V5.81903V5.79355V5.76828V5.74322V5.71837V5.69373V5.66929V5.64508V5.62107V5.59728V5.57371V5.55035V5.52722V5.5043V5.48161V5.45914V5.43689V5.41486V5.39307V5.3715V5.35016V5.32905V5.30817V5.28752V5.26711V5.24693V5.22699V5.20729V5.18782V5.1686V5.14961V5.13087V5.11237V5.09412V5.07611V5.05835V5.04083V5.02357V5.00656V4.9898V4.9733V4.95704V4.94105V4.92531V4.90983V4.89461V4.87965V4.86495V4.85052V4.83635V4.82244V4.8088V4.79543V4.78233V4.7695V4.75695V4.74466V4.73265V4.72092V4.70946V4.69828V4.68738V4.67676V4.66642V4.65636V4.64659V4.63711V4.62791V4.619V4.61037V4.60204V4.594V4.58625V4.5788V4.57164V4.56478V4.55821V4.55195V4.54598V4.54032V4.53495V4.5299V4.52514V4.5207V4.51656V4.51273V4.50921V4.506V4.5031V4.50052C12.5 4.36266 12.6121 4.25052 12.75 4.25052H23.25C23.3879 4.25052 23.5 4.36266 23.5 4.50052V19.5005C23.5 19.6384 23.3879 19.7505 23.25 19.7505Z" stroke="black" stroke-opacity="0.2"/>
<path d="M15.75 8.25052H12.75C12.336 8.25052 12 7.91452 12 7.50052C12 7.08652 12.336 6.75052 12.75 6.75052H15.75C16.164 6.75052 16.5 7.08652 16.5 7.50052C16.5 7.91452 16.164 8.25052 15.75 8.25052Z" fill="#388E3C"/>
<path d="M15.75 11.2505H12.75C12.336 11.2505 12 10.9145 12 10.5005C12 10.0865 12.336 9.75052 12.75 9.75052H15.75C16.164 9.75052 16.5 10.0865 16.5 10.5005C16.5 10.9145 16.164 11.2505 15.75 11.2505Z" fill="#388E3C"/>
<path d="M15.75 14.2505H12.75C12.336 14.2505 12 13.9145 12 13.5005C12 13.0865 12.336 12.7505 12.75 12.7505H15.75C16.164 12.7505 16.5 13.0865 16.5 13.5005C16.5 13.9145 16.164 14.2505 15.75 14.2505Z" fill="#388E3C"/>
<path d="M15.75 17.2505H12.75C12.336 17.2505 12 16.9145 12 16.5005C12 16.0865 12.336 15.7505 12.75 15.7505H15.75C16.164 15.7505 16.5 16.0865 16.5 16.5005C16.5 16.9145 16.164 17.2505 15.75 17.2505Z" fill="#388E3C"/>
<path d="M20.25 8.25052H18.75C18.336 8.25052 18 7.91452 18 7.50052C18 7.08652 18.336 6.75052 18.75 6.75052H20.25C20.664 6.75052 21 7.08652 21 7.50052C21 7.91452 20.664 8.25052 20.25 8.25052Z" fill="#388E3C"/>
<path d="M20.25 11.2505H18.75C18.336 11.2505 18 10.9145 18 10.5005C18 10.0865 18.336 9.75052 18.75 9.75052H20.25C20.664 9.75052 21 10.0865 21 10.5005C21 10.9145 20.664 11.2505 20.25 11.2505Z" fill="#388E3C"/>
<path d="M20.25 14.2505H18.75C18.336 14.2505 18 13.9145 18 13.5005C18 13.0865 18.336 12.7505 18.75 12.7505H20.25C20.664 12.7505 21 13.0865 21 13.5005C21 13.9145 20.664 14.2505 20.25 14.2505Z" fill="#388E3C"/>
<path d="M20.25 17.2505H18.75C18.336 17.2505 18 16.9145 18 16.5005C18 16.0865 18.336 15.7505 18.75 15.7505H20.25C20.664 15.7505 21 16.0865 21 16.5005C21 16.9145 20.664 17.2505 20.25 17.2505Z" fill="#388E3C"/>
<path d="M12.9084 1.30714L12.9101 1.3085C12.9669 1.35548 13 1.42531 13 1.50052V22.5005C13 22.5748 12.9665 22.6459 12.9101 22.6925L12.9084 22.6939C12.8648 22.7302 12.8091 22.7505 12.75 22.7505C12.7355 22.7505 12.7218 22.7491 12.71 22.7467L12.7101 22.7467L12.7041 22.7456L0.704144 20.4956L0.703267 20.4954C0.585632 20.4736 0.5 20.3706 0.5 20.2505V3.75052C0.5 3.62959 0.585031 3.52757 0.703268 3.50562L0.704144 3.50546L12.7041 1.25546L12.7042 1.25556L12.714 1.25351C12.7732 1.24118 12.8487 1.2574 12.9084 1.30714Z" fill="#2E7D32"/>
<path d="M12.9084 1.30714L12.9101 1.3085C12.9669 1.35548 13 1.42531 13 1.50052V22.5005C13 22.5748 12.9665 22.6459 12.9101 22.6925L12.9084 22.6939C12.8648 22.7302 12.8091 22.7505 12.75 22.7505C12.7355 22.7505 12.7218 22.7491 12.71 22.7467L12.7101 22.7467L12.7041 22.7456L0.704144 20.4956L0.703267 20.4954C0.585632 20.4736 0.5 20.3706 0.5 20.2505V3.75052C0.5 3.62959 0.585031 3.52757 0.703268 3.50562L0.704144 3.50546L12.7041 1.25546L12.7042 1.25556L12.714 1.25351C12.7732 1.24118 12.8487 1.2574 12.9084 1.30714Z" stroke="#3A99D9"/>
<path d="M12.9084 1.30714L12.9101 1.3085C12.9669 1.35548 13 1.42531 13 1.50052V22.5005C13 22.5748 12.9665 22.6459 12.9101 22.6925L12.9084 22.6939C12.8648 22.7302 12.8091 22.7505 12.75 22.7505C12.7355 22.7505 12.7218 22.7491 12.71 22.7467L12.7101 22.7467L12.7041 22.7456L0.704144 20.4956L0.703267 20.4954C0.585632 20.4736 0.5 20.3706 0.5 20.2505V3.75052C0.5 3.62959 0.585031 3.52757 0.703268 3.50562L0.704144 3.50546L12.7041 1.25546L12.7042 1.25556L12.714 1.25351C12.7732 1.24118 12.8487 1.2574 12.9084 1.30714Z" stroke="black" stroke-opacity="0.2"/>
<path d="M10.2435 15.5645L9.91457 15.188C9.86568 15.2307 9.80792 15.2505 9.75004 15.2505C9.68113 15.2505 9.6137 15.2224 9.56356 15.1647L9.56356 15.1647L9.56226 15.1632L7.38126 12.6717L6.98218 12.2158L6.6103 12.6941L4.6982 15.1536C4.69815 15.1537 4.6981 15.1537 4.69805 15.1538C4.64817 15.2177 4.57576 15.2505 4.50004 15.2505C4.44575 15.2505 4.39134 15.2336 4.34497 15.1983C4.236 15.1117 4.21811 14.9548 4.30183 14.8475L4.30219 14.847L6.39319 12.159L6.64651 11.8334L6.37489 11.5228L4.31239 9.16484L4.31239 9.16484L4.31154 9.16387C4.22189 9.06191 4.23116 8.90437 4.33579 8.81281L4.33579 8.81282L4.33759 8.81123C4.4391 8.72155 4.59527 8.73015 4.68708 8.83551L4.68708 8.83551L4.68778 8.83631L6.55978 10.9753L6.95876 11.4312L7.3307 10.953L9.55099 8.09857C9.63993 7.98671 9.79756 7.97115 9.90219 8.05312C10.0124 8.13948 10.0308 8.29724 9.94675 8.40505L9.94635 8.40557L7.54785 11.4896L7.29456 11.8152L7.56624 12.1258L9.93774 14.8363L9.93854 14.8372C10.0282 14.9391 10.0189 15.0967 9.91429 15.1882L10.2435 15.5645ZM10.2435 15.5645C10.5555 15.2915 10.587 14.8175 10.314 14.507L9.18604 15.4925C9.33454 15.6635 9.54154 15.7505 9.75004 15.7505C9.92554 15.7505 10.101 15.689 10.2435 15.5645Z" fill="#FAFAFA"/>
<path d="M10.2435 15.5645L9.91457 15.188C9.86568 15.2307 9.80792 15.2505 9.75004 15.2505C9.68113 15.2505 9.6137 15.2224 9.56356 15.1647L9.56356 15.1647L9.56226 15.1632L7.38126 12.6717L6.98218 12.2158L6.6103 12.6941L4.6982 15.1536C4.69815 15.1537 4.6981 15.1537 4.69805 15.1538C4.64817 15.2177 4.57576 15.2505 4.50004 15.2505C4.44575 15.2505 4.39134 15.2336 4.34497 15.1983C4.236 15.1117 4.21811 14.9548 4.30183 14.8475L4.30219 14.847L6.39319 12.159L6.64651 11.8334L6.37489 11.5228L4.31239 9.16484L4.31239 9.16484L4.31154 9.16387C4.22189 9.06191 4.23116 8.90437 4.33579 8.81281L4.33579 8.81282L4.33759 8.81123C4.4391 8.72155 4.59527 8.73015 4.68708 8.83551L4.68708 8.83551L4.68778 8.83631L6.55978 10.9753L6.95876 11.4312L7.3307 10.953L9.55099 8.09857C9.63993 7.98671 9.79756 7.97115 9.90219 8.05312C10.0124 8.13948 10.0308 8.29724 9.94675 8.40505L9.94635 8.40557L7.54785 11.4896L7.29456 11.8152L7.56624 12.1258L9.93774 14.8363L9.93854 14.8372C10.0282 14.9391 10.0189 15.0967 9.91429 15.1882L10.2435 15.5645ZM10.2435 15.5645C10.5555 15.2915 10.587 14.8175 10.314 14.507L9.18604 15.4925C9.33454 15.6635 9.54154 15.7505 9.75004 15.7505C9.92554 15.7505 10.101 15.689 10.2435 15.5645Z" stroke="#3A99D9"/>
<path d="M10.2435 15.5645L9.91457 15.188C9.86568 15.2307 9.80792 15.2505 9.75004 15.2505C9.68113 15.2505 9.6137 15.2224 9.56356 15.1647L9.56356 15.1647L9.56226 15.1632L7.38126 12.6717L6.98218 12.2158L6.6103 12.6941L4.6982 15.1536C4.69815 15.1537 4.6981 15.1537 4.69805 15.1538C4.64817 15.2177 4.57576 15.2505 4.50004 15.2505C4.44575 15.2505 4.39134 15.2336 4.34497 15.1983C4.236 15.1117 4.21811 14.9548 4.30183 14.8475L4.30219 14.847L6.39319 12.159L6.64651 11.8334L6.37489 11.5228L4.31239 9.16484L4.31239 9.16484L4.31154 9.16387C4.22189 9.06191 4.23116 8.90437 4.33579 8.81281L4.33579 8.81282L4.33759 8.81123C4.4391 8.72155 4.59527 8.73015 4.68708 8.83551L4.68708 8.83551L4.68778 8.83631L6.55978 10.9753L6.95876 11.4312L7.3307 10.953L9.55099 8.09857C9.63993 7.98671 9.79756 7.97115 9.90219 8.05312C10.0124 8.13948 10.0308 8.29724 9.94675 8.40505L9.94635 8.40557L7.54785 11.4896L7.29456 11.8152L7.56624 12.1258L9.93774 14.8363L9.93854 14.8372C10.0282 14.9391 10.0189 15.0967 9.91429 15.1882L10.2435 15.5645ZM10.2435 15.5645C10.5555 15.2915 10.587 14.8175 10.314 14.507L9.18604 15.4925C9.33454 15.6635 9.54154 15.7505 9.75004 15.7505C9.92554 15.7505 10.101 15.689 10.2435 15.5645Z" stroke="black" stroke-opacity="0.2"/>
</g>
<defs>
<clipPath id="clip0_1167_3099">
<rect width="24" height="24" fill="white"/>
</clipPath>
</defs>
</svg>
