<svg width="24" height="24" viewBox="0 0 24 24" fill="none" xmlns="http://www.w3.org/2000/svg">
<path d="M5 1.5C5 0.951142 5.45114 0.5 6 0.5H16.2929L22 6.20711V22.5C22 23.0489 21.5489 23.5 21 23.5H6C5.45114 23.5 5 23.0489 5 22.5V1.5Z" fill="#E2E5E7"/>
<path d="M5 1.5C5 0.951142 5.45114 0.5 6 0.5H16.2929L22 6.20711V22.5C22 23.0489 21.5489 23.5 21 23.5H6C5.45114 23.5 5 23.0489 5 22.5V1.5Z" stroke="#3A99D9"/>
<path d="M5 1.5C5 0.951142 5.45114 0.5 6 0.5H16.2929L22 6.20711V22.5C22 23.0489 21.5489 23.5 21 23.5H6C5.45114 23.5 5 23.0489 5 22.5V1.5Z" stroke="black" stroke-opacity="0.2"/>
<path d="M21.2929 5.5H18C17.4511 5.5 17 5.04886 17 4.5V1.20711L21.2929 5.5Z" fill="#B0B7BD"/>
<path d="M21.2929 5.5H18C17.4511 5.5 17 5.04886 17 4.5V1.20711L21.2929 5.5Z" stroke="#3A99D9"/>
<path d="M21.2929 5.5H18C17.4511 5.5 17 5.04886 17 4.5V1.20711L21.2929 5.5Z" stroke="black" stroke-opacity="0.2"/>
<path d="M22 6.5V9.29289L19.2071 6.5H22Z" fill="#CAD1D8"/>
<path d="M22 6.5V9.29289L19.2071 6.5H22Z" stroke="#3A99D9"/>
<path d="M22 6.5V9.29289L19.2071 6.5H22Z" stroke="black" stroke-opacity="0.2"/>
<path d="M19.5 19.5C19.5 19.9125 19.1625 20.25 18.75 20.25H2.25C1.8375 20.25 1.5 19.9125 1.5 19.5V12C1.5 11.5875 1.8375 11.25 2.25 11.25H18.75C19.1625 11.25 19.5 11.5875 19.5 12V19.5Z" fill="#F15642"/>
<path d="M4.76929 14.2102C4.76929 14.0122 4.92529 13.7962 5.17654 13.7962H6.56179C7.34179 13.7962 8.04379 14.3182 8.04379 15.3187C8.04379 16.2667 7.34179 16.7947 6.56179 16.7947H5.56054V17.5867C5.56054 17.8507 5.39254 18 5.17654 18C4.97854 18 4.76929 17.8507 4.76929 17.5867V14.2102ZM5.56054 14.5515V16.0455H6.56179C6.96379 16.0455 7.28179 15.6907 7.28179 15.3187C7.28179 14.8995 6.96379 14.5515 6.56179 14.5515H5.56054Z" fill="white"/>
<path d="M9.21832 18C9.02032 18 8.80432 17.892 8.80432 17.6288V14.2223C8.80432 14.007 9.02032 13.8503 9.21832 13.8503H10.5916C13.3321 13.8503 13.2721 18 10.6456 18H9.21832ZM9.59632 14.5823V17.2688H10.5916C12.2108 17.2688 12.2828 14.5823 10.5916 14.5823H9.59632Z" fill="white"/>
<path d="M14.2441 14.6303V15.5835H15.7733C15.9893 15.5835 16.2053 15.7995 16.2053 16.0088C16.2053 16.2068 15.9893 16.3688 15.7733 16.3688H14.2441V17.628C14.2441 17.838 14.0948 17.9993 13.8848 17.9993C13.6208 17.9993 13.4596 17.838 13.4596 17.628V14.2215C13.4596 14.0063 13.6216 13.8495 13.8848 13.8495H15.9901C16.2541 13.8495 16.4101 14.0063 16.4101 14.2215C16.4101 14.4135 16.2541 14.6295 15.9901 14.6295H14.2441V14.6303Z" fill="white"/>
<path d="M18.75 20.25H4.5V21H18.75C19.1625 21 19.5 20.6625 19.5 20.25V19.5C19.5 19.9125 19.1625 20.25 18.75 20.25Z" fill="#CAD1D8"/>
</svg>
